<svg width="44" height="45" fill="none" xmlns="http://www.w3.org/2000/svg">
  <path d="M37.906 7.349a3.34 3.34 0 0 0-.659-1.22 3.197 3.197 0 0 0-1.086-.83c-.412-.2-.862-.3-1.317-.295H9.228a2.572 2.572 0 0 0-1.317.277c-.424.195-.801.485-1.104.85a3.34 3.34 0 0 0-.659 1.218c-.137.446-.18.919-.124 1.384l2.92 25.843a7.318 7.318 0 0 0 2.296 4.578A6.72 6.72 0 0 0 15.815 41h12.46a6.754 6.754 0 0 0 4.593-1.846 7.478 7.478 0 0 0 2.279-4.578L36.73 20.05v-.222l1.228-11.075c.069-.467.05-.944-.053-1.403Zm-17.98 28.335h-1.78a5.032 5.032 0 0 1-3.115-1.33 5.264 5.264 0 0 1-1.602-3.082l-.427-3.175a1.914 1.914 0 0 1 .362-1.357c.287-.386.709-.64 1.174-.707a1.75 1.75 0 0 1 1.316.346c.379.289.633.72.708 1.201l.427 3.138c.048.343.212.657.463.886.249.237.57.374.908.388h1.78c.472 0 .925.194 1.259.54.334.347.521.816.521 1.306 0 .49-.187.959-.521 1.305a1.75 1.75 0 0 1-1.259.54h-.213Zm14.241-17.038c-3.756.757-6.96.904-10.36-1.846-4.219-3.452-9.328-2.345-14.24-.535l-.89-7.827a.555.555 0 0 1 0-.24.482.482 0 0 1 .124-.203.359.359 0 0 1 .178-.148c.07-.02.144-.02.213 0H35.04a.7.7 0 0 1 .178.148.436.436 0 0 1 .106.203.42.42 0 0 1 0 .258l-1.157 10.19Z" fill="#9BE1A0"/>
</svg>
